<svg width="52" height="52" viewBox="0 0 52 52" fill="none" xmlns="http://www.w3.org/2000/svg">
<g clip-path="url(#clip0_59_73)">
<path d="M9.75708 9.35074C8.27738 10.7634 6.70068 13.1261 6.38528 15.9271C6.04568 15.7079 5.70609 15.4643 5.39069 15.1964C5.51199 13.6863 7.84078 9.98402 9.75708 9.35074Z" fill="#006455"/>
<path d="M47.3796 13.8806C43.3036 8.03491 36.245 3.84553 25.8869 3.84553C25.5473 2.31105 24.2616 1.14192 22.6606 0.971424C18.0516 0.484287 6.55337 0.873997 5.60727 0.971424C3.90927 1.14192 2.40527 2.53026 2.33247 4.64931C2.28397 6.52479 2.08997 7.69392 1.50777 8.44898C0.925567 9.17969 0.537469 9.66682 0.270569 10.0322C0.610169 11.4936 1.19237 12.8089 1.99287 13.978C1.50777 15.2202 1.16817 16.5842 0.998367 18.07C0.537467 22.2106 1.55627 27.0089 4.78257 31.1983L5.26767 30.8086C6.98997 33.2686 8.76087 35.412 9.85247 36.7517C7.59647 37.1657 6.28657 38.2374 6.96577 42.1102C7.08707 42.7922 7.08707 44.1074 8.93067 44.7894C9.34297 45.3253 10.0223 45.6419 10.9926 45.7637C11.6718 46.397 12.7149 46.4701 13.0788 46.4701C13.952 46.4701 16.014 46.2752 16.9843 45.6663C21.472 50.0992 27.4394 51.6824 32.8974 50.6351L32.6791 51.2684C42.0666 50.3428 48.1796 43.0357 49.6356 37.1414L50.1206 37.3362C52.8856 29.883 52.1586 20.7249 47.3796 13.8806ZM48.7376 35.2172L48.2766 35.0223C47.8406 37.3849 46.8216 39.8206 45.2686 41.964C44.8076 40.7949 44.1776 40.0398 43.0126 39.2604C42.9156 39.3822 42.7946 39.5527 42.6976 39.6745C41.7756 38.9438 40.7326 38.4566 39.7386 38.1644C41.6306 39.2848 43.1346 41.4282 43.4976 44.0587C42.7456 44.8381 41.9216 45.5445 41.0236 46.1778C40.9026 45.1061 40.6356 44.2049 40.2476 43.4498C40.0776 43.5472 39.8596 43.6934 39.6166 43.8395C39.3256 42.6947 38.7196 41.9153 38.4286 41.5987L37.9426 41.891C37.4336 41.0628 36.7544 40.3321 35.9781 39.7232C37.7486 42.305 38.3066 46.6162 36.8272 48.3212C35.493 48.784 34.4984 48.9545 34.1103 49.0032L34.3529 48.2725C33.4311 48.4917 32.5335 48.6378 31.6117 48.7352C32.5335 46.2265 32.291 45.1791 32.2667 44.6676C32.4122 44.6676 32.5578 44.692 32.6791 44.692C32.5093 42.9627 31.7573 41.209 30.787 39.9911C31.2721 41.282 31.2721 42.7678 31.1023 43.6203C30.8112 43.5959 30.2048 43.5229 30.2048 43.5229C30.132 44.2292 29.5983 45.715 28.7978 46.8354C28.7978 46.8354 29.0404 46.9085 29.4043 46.9815C28.9191 47.6879 28.3854 48.2481 27.8275 48.7596C25.8384 48.5647 24.0433 48.0289 22.4423 47.2495C23.1215 46.738 23.8007 46.2508 24.5284 45.374L23.7037 44.9599C24.6497 44.1318 25.4745 42.9383 25.8869 41.623L25.426 41.4525C25.8626 40.6975 26.4206 39.0899 26.1295 37.7259C25.8626 39.6745 23.1215 43.3037 20.2106 44.0831L20.9868 44.5946C20.1378 45.1304 19.968 45.1304 19.41 45.2522C18.4397 44.4241 17.5665 43.4742 16.8387 42.4268C13.3941 37.5067 15.8441 32.0264 19.8952 32.0264C20.9868 32.0264 21.7873 32.3431 22.4665 32.8789C24.9408 34.8031 24.9408 37.3849 29.38 39.0412C31.9756 40.0155 34.838 39.9668 37.3851 38.6271C39.8106 37.3119 41.3636 35.1441 41.5336 34.7544C38.9866 36.6542 36.3178 37.0439 35.3717 37.0683C35.7356 37.6285 35.6871 37.5311 35.7841 37.7016C33.4553 38.3105 31.1023 38.0913 29.477 37.3849C25.2077 35.5095 24.4799 30.8817 24.674 29.2741L24.2131 29.542C24.1646 27.4473 24.8438 25.9372 25.4502 24.4271C26.372 22.0401 26.7359 19.3852 24.771 16.6329C25.4745 19.9454 24.9408 21.9427 24.1888 23.672C23.2428 25.8154 21.9814 27.5448 22.3452 30.8086C21.569 30.4676 20.7685 30.3215 19.9195 30.3215C13.7337 30.3215 11.4292 38.5297 15.7956 44.0587C14.6798 44.351 12.5693 44.6433 12.2782 44.1805C12.254 44.1562 12.254 43.8882 12.2297 43.7421C11.7203 43.7908 10.5559 43.6934 10.4589 43.4498C10.4346 43.3767 10.4104 42.987 10.4104 42.987C9.70687 43.0114 9.05187 42.646 9.00337 42.3537C8.68807 39.8206 7.81477 38.6028 12.254 37.6285C12.351 36.776 12.3995 35.7043 10.3376 33.4148L9.99797 33.7314C9.22177 32.7815 7.28107 30.2971 6.01967 28.3485L5.53457 28.7383C4.66127 27.6666 3.81227 25.7667 3.32707 23.5259C2.57507 20.0429 2.89047 16.6329 3.93347 13.9049C4.92807 11.3231 6.69887 9.13097 9.29447 7.9862C7.40237 7.47471 3.86076 10.1296 2.89046 12.1269C2.57506 11.5667 2.33247 10.9821 2.13847 10.3732C3.73947 8.05927 6.52907 6.744 8.73657 6.69529C7.83907 5.86715 5.80137 6.01329 4.05477 6.62222C4.39437 4.72238 4.05477 3.04176 5.89837 2.8469C7.11127 2.70076 9.02767 2.70076 11.0411 2.6764C11.1381 2.99304 11.7203 3.16354 12.2055 3.3584C12.3025 3.38275 12.3753 3.40711 12.4238 3.40711C12.7149 3.40711 12.6906 3.0174 12.4966 2.65205C12.8604 2.65205 13.2486 2.65205 13.6124 2.62769C13.8793 3.50454 13.7822 3.65068 14.1461 3.65068C14.4857 3.65068 14.3887 3.50454 14.6798 2.60333C15.0679 2.60333 15.456 2.57898 15.8199 2.57898C15.5773 2.96869 15.5288 3.40711 15.8441 3.40711C15.8927 3.40711 15.9654 3.38275 16.0625 3.3584C16.6204 3.13918 17.3239 2.94433 17.2511 2.55462C18.9734 2.55462 20.6472 2.60333 22.3695 2.79819C23.2428 2.89561 23.8007 3.3584 24.0675 4.52752C24.3344 5.59923 24.9651 6.06201 25.9839 6.32993C25.9839 6.11072 25.9111 5.74537 25.8869 5.6723C37.094 5.6723 42.8916 10.7142 45.8026 14.9279C49.6106 20.5544 50.7756 28.2511 48.7376 35.2172Z" fill="#006455"/>
<path d="M14.1219 5.59874H14.1705C14.316 5.59874 14.413 5.18468 14.4373 5.01418C14.4616 4.81933 14.2917 4.74625 14.1462 4.74625C13.9764 4.74625 13.8066 4.84368 13.8551 5.01418C13.8551 5.20904 13.9764 5.59874 14.1219 5.59874Z" fill="#006455"/>
<path d="M13.5404 10.1539C14.3166 10.4706 13.3705 11.25 12.3275 11.25C12.1091 11.25 11.9393 11.1769 11.7453 11.1282C11.721 11.25 11.6725 11.3231 11.7938 11.4205C12.0121 11.6154 12.2789 11.6884 12.57 11.6884C12.9582 11.6884 13.3948 11.5423 13.7829 11.3474C13.9527 11.25 14.0498 11.2013 14.1468 11.2013C14.2438 11.2013 14.3409 11.25 14.5107 11.3474C14.8988 11.5179 15.3112 11.6641 15.6993 11.6641C15.9904 11.6641 16.2572 11.591 16.4756 11.3961C16.5968 11.2987 16.5726 11.2256 16.5241 11.1039C16.3057 11.1769 16.0874 11.2256 15.8691 11.2256C14.8503 11.2256 13.977 10.4706 14.729 10.1539C14.9473 10.0565 14.9958 10.0322 15.0201 10.0078C15.0929 9.93473 15.1414 9.71551 14.9958 9.52066C14.7047 9.61809 14.4136 9.6668 14.1225 9.6668C13.8314 9.6668 13.5646 9.61809 13.2493 9.52066C13.1037 9.71551 13.1522 9.95908 13.225 10.0078C13.2735 10.0078 13.322 10.0565 13.5404 10.1539Z" fill="#006455"/>
<path d="M12.5211 5.11229C12.5697 5.16101 12.6182 5.18536 12.6424 5.18536C12.7637 5.18536 12.8365 4.94179 12.8122 4.69823C12.788 4.45466 12.691 4.21109 12.4969 4.21109C12.4484 4.21109 12.3999 4.21109 12.3513 4.23545C11.7934 4.52773 12.2301 4.82001 12.5211 5.11229Z" fill="#006455"/>
<path d="M10.5806 4.1131C10.6049 4.1131 10.6534 4.1131 10.6777 4.1131C10.9445 4.1131 10.9202 3.86953 10.7504 3.62596C10.5806 3.38239 10.2895 3.13882 10.0227 3.13882C9.90137 3.13882 9.80437 3.18754 9.70727 3.30932C9.22217 3.96696 9.99837 4.01567 10.5806 4.1131Z" fill="#006455"/>
<path d="M5.19472 4.18598C5.29172 4.21033 5.41302 4.23469 5.53432 4.25905C5.31602 4.52697 5.14622 4.89233 5.09772 5.28204C5.92242 5.06282 7.01401 4.94104 8.03291 4.89233C7.64471 4.25905 6.16502 2.91942 5.19472 4.18598Z" fill="#006455"/>
<path d="M15.6257 5.16096C15.6742 5.16096 15.6985 5.1366 15.747 5.08789C16.0381 4.79561 16.4747 4.50332 15.8926 4.21104C15.844 4.18668 15.7955 4.18668 15.747 4.18668C15.5529 4.18668 15.4559 4.43025 15.4316 4.67382C15.4316 4.91739 15.5044 5.16096 15.6257 5.16096Z" fill="#006455"/>
<path d="M22.735 4.25947C22.8563 4.23511 22.9776 4.1864 23.0746 4.1864C22.1285 2.9442 20.6731 4.23511 20.2364 4.86839C21.2553 4.91711 22.3469 5.03889 23.1716 5.2581C23.1231 4.89275 22.9533 4.5274 22.735 4.25947Z" fill="#006455"/>
<path d="M17.6148 4.11402C17.6391 4.11402 17.6633 4.11402 17.7118 4.11402C18.294 4.01659 19.0703 3.99223 18.5851 3.28588C18.4881 3.1641 18.3911 3.11539 18.2698 3.11539C18.0029 3.11539 17.7118 3.35895 17.542 3.60252C17.3722 3.87045 17.348 4.11402 17.6148 4.11402Z" fill="#006455"/>
<path d="M18.5372 9.35074C20.0169 10.7634 21.5937 13.1261 21.9091 15.9271C22.2487 15.7079 22.5883 15.4643 22.9036 15.1964C22.8551 14.4657 22.2729 13.1991 21.4482 12.0056C20.5991 10.7878 19.5075 9.66738 18.5372 9.35074Z" fill="#006455"/>
<path d="M19.5547 6.76865C21.4468 6.81737 24.382 7.88907 26.1528 10.4465C26.3954 9.66712 26.541 8.83899 26.5652 7.9865C25.0855 6.54944 20.9374 5.47774 19.5547 6.76865Z" fill="#006455"/>
<path d="M18.9737 8.05942C21.3753 9.10676 23.4129 11.372 24.262 13.832C24.6986 13.3205 25.0625 12.7847 25.3778 12.2001C24.4318 10.2028 20.8659 7.54792 18.9737 8.05942Z" fill="#006455"/>
<path d="M18.5867 5.47769C18.4896 5.47769 18.4169 5.47769 18.3198 5.47769C15.6515 5.47769 14.948 7.49931 15.894 8.03516C15.7485 7.52367 15.797 7.08524 16.3307 6.62246C16.3307 6.9391 16.5733 7.1096 16.8158 7.1096C17.0584 7.1096 17.3253 6.9391 17.301 6.59811C17.2767 6.40325 17.1555 6.23275 16.9614 6.18404C17.0342 6.15968 17.2767 6.0379 17.398 6.0379C17.4223 6.0379 17.4465 6.0379 17.4465 6.06225C17.8347 6.40325 17.8104 6.96346 17.4708 7.30445C17.301 7.49931 17.0342 7.59674 16.7673 7.59674C16.5733 7.59674 16.3549 7.52367 16.1851 7.40188C16.1851 7.64545 16.5005 7.93773 16.9614 7.93773C17.301 7.93773 17.7134 7.76724 18.1015 7.30445C18.5381 6.81732 18.6837 6.11097 18.5867 5.47769Z" fill="#006455"/>
<path d="M10.2402 16.9494C10.6284 18.289 13.7819 19.7017 14.1458 19.7017H14.17C14.17 19.7017 14.17 19.7017 14.1943 19.7017C14.5581 19.7017 17.7117 18.289 18.0998 16.9494C16.8384 17.7775 15.5042 18.1916 14.1943 18.1916C12.8116 18.1672 11.4774 17.7532 10.2402 16.9494Z" fill="#006455"/>
<path d="M11.333 7.93768C11.7939 7.93768 12.1093 7.64539 12.1093 7.40183C11.9395 7.52361 11.7454 7.59668 11.5271 7.59668C11.2602 7.59668 10.9934 7.49925 10.8236 7.3044C10.5082 6.9634 10.484 6.40319 10.8479 6.0622C10.8479 6.0622 10.8721 6.03784 10.8964 6.03784H10.9206C10.9206 6.03784 10.9206 6.03784 10.9449 6.03784H10.9691C11.0177 6.03784 11.0662 6.0622 11.1147 6.08655H11.1389C11.1875 6.11091 11.236 6.13527 11.2845 6.13527C11.3088 6.13527 11.3087 6.13527 11.3087 6.15962C11.1147 6.20834 10.9934 6.37884 10.9691 6.57369C10.9691 6.67112 10.9691 6.74419 10.9934 6.7929C11.0177 6.84162 11.0662 6.91469 11.0904 6.9634C11.1389 7.01212 11.1875 7.03647 11.2602 7.06083C11.3088 7.08519 11.3815 7.08519 11.4543 7.08519C11.6969 7.08519 11.9395 6.93904 11.9395 6.59805C12.4004 7.01212 12.4974 7.37747 12.4246 7.81589C12.4246 7.88896 12.4004 7.93768 12.3761 8.01075C12.4246 7.98639 12.4974 7.93768 12.5459 7.88896C12.6914 7.74282 12.7642 7.57232 12.7885 7.37747C12.8613 6.57369 11.988 5.45328 9.97457 5.45328C9.90177 5.45328 9.80477 5.45328 9.70767 5.45328C9.61067 6.08655 9.75627 6.76855 10.1686 7.28004C10.581 7.79153 10.9934 7.93768 11.333 7.93768Z" fill="#006455"/>
</g>
<defs>
<clipPath id="clip0_59_73">
<rect width="52" height="52" fill="white"/>
</clipPath>
</defs>
</svg>
